<svg width="48" height="48" xmlns="http://www.w3.org/2000/svg">

  <g>
    <rect fill="none" height="402" width="582" y="-1" x="-1"/>
  </g>
  <g>
    <path stroke="null" id="svg_1" d="m4,10l24,0c1.104,0 1.25317,0.1903 1.25317,-0.9137s-0.14917,-3.0863 -1.25317,-3.0863l-24,0c-1.104,0 -0.71002,0.76021 -0.71002,1.86421s-0.39398,2.13579 0.71002,2.13579zm24,4l-24,0c-1.104,0 -1.38896,0.21706 -1.38896,1.32106s0.28496,2.67894 1.38896,2.67894l24,0c1.104,0 1.38896,-1.71072 1.38896,-2.81472s-0.28496,-1.18528 -1.38896,-1.18528zm0,8l-24,0c-1.104,0 -0.57424,0.96389 -0.57424,2.06789s-0.52976,1.93211 0.57424,1.93211l24,0c1.104,0 1.18528,-1.84651 1.18528,-2.95051s-0.08128,-1.04949 -1.18528,-1.04949z"/>
  </g>
</svg>
